<svg width="512" height="512" viewBox="0 0 512 512" fill="none" xmlns="http://www.w3.org/2000/svg">
<g clip-path="url(#clip0_17_9)">
<circle cx="256" cy="256" r="256" fill="#02214A"/>
<path d="M92.9023 190.77H135.969L176.203 298.68L215.363 190.77H256.965V199.07H253.449C249.217 199.07 246.353 199.428 244.855 200.145C243.423 200.861 242.284 202.13 241.438 203.953C240.591 205.711 240.168 208.641 240.168 212.742V302.586C240.168 308.25 240.493 311.928 241.145 313.621C241.861 315.314 243 316.616 244.562 317.527C246.19 318.374 249.152 318.797 253.449 318.797H256.965V327H204.914V318.797H208.625C211.945 318.797 214.354 318.536 215.852 318.016C217.414 317.495 218.684 316.648 219.66 315.477C220.702 314.24 221.288 312.97 221.418 311.668C221.743 308.999 221.906 306.915 221.906 305.418V205.125L177.473 327H167.805L122.98 206.883V303.465C122.98 308.348 123.404 311.668 124.25 313.426C125.096 315.118 126.398 316.453 128.156 317.43C129.979 318.341 133.202 318.797 137.824 318.797H140.949V327H92.9023V318.797H95.6367C100.259 318.797 103.547 318.309 105.5 317.332C107.518 316.355 108.951 314.988 109.797 313.23C110.643 311.408 111.066 307.859 111.066 302.586V213.621C111.066 208.673 110.708 205.418 109.992 203.855C109.276 202.228 108.072 201.023 106.379 200.242C104.751 199.461 101.822 199.07 97.5898 199.07H92.9023V190.77ZM276.984 199.07V190.77H325.617C347.883 190.77 363.41 192.169 372.199 194.969C385.155 199.07 395.669 206.72 403.742 217.918C412.661 230.288 417.121 244.513 417.121 260.594C417.121 271.531 414.908 281.72 410.48 291.16C406.118 300.535 400.357 308.087 393.195 313.816C387.271 318.634 380.142 322.052 371.809 324.07C363.475 326.023 355.077 327 346.613 327H276.984V318.797H282.648L284.504 318.895C286.913 318.895 288.866 318.406 290.363 317.43C291.926 316.453 293.033 315.151 293.684 313.523C294.139 312.286 294.367 309.422 294.367 304.93V213.816C294.367 208.673 294.042 205.353 293.391 203.855C292.479 201.837 291.014 200.438 288.996 199.656C287.824 199.266 283.82 199.07 276.984 199.07ZM312.531 316.453H342.023C344.953 316.453 349.803 315.932 356.574 314.891C363.41 313.849 368.293 312.579 371.223 311.082C375.52 308.868 379.686 305.32 383.723 300.438C387.759 295.49 390.852 289.598 393 282.762C395.214 275.861 396.32 267.983 396.32 259.129C396.32 250.34 395.214 242.723 393 236.277C390.852 229.832 387.564 224.038 383.137 218.895C378.775 213.751 373.892 209.845 368.488 207.176C363.15 204.441 357.16 202.716 350.52 202C346.939 201.674 340.949 201.512 332.551 201.512H312.531V316.453Z" fill="white"/>
</g>
<defs>
<clipPath id="clip0_17_9">
<rect width="512" height="512" fill="white"/>
</clipPath>
</defs>
</svg>
